<?xml version="1.0" encoding="utf-8"?>
<!-- Generator: Adobe Illustrator 25.0.1, SVG Export Plug-In . SVG Version: 6.00 Build 0)  -->
<svg version="1.1" id="Camada_1" xmlns="http://www.w3.org/2000/svg" xmlns:xlink="http://www.w3.org/1999/xlink" x="0px" y="0px"
	 viewBox="0 0 586.06 126.3" enable-background="new 0 0 586.06 126.3" xml:space="preserve">
<g>
	<path fill="#13135C" d="M552.66,105.69c12.26,0,24.74-5.98,30.82-14.84c1.86-2.78,2.58-5.36,2.58-9.07v-7.42
		c0-5.15-3.81-8.97-8.97-8.97h-17.73c-4.54,0-7.94,3.3-7.94,7.63s3.4,7.63,7.94,7.63h8.97v3.2c-3.4,3.92-8.66,6.08-14.94,6.08
		c-11.85,0-19.58-7.63-19.58-19.48c0-11.54,7.32-18.96,18.55-18.96c5.46,0,9.79,1.86,13.5,5.67c2.58,2.68,4.53,3.71,7.32,3.71
		c4.33,0,8.04-3.61,8.04-7.94c0-3.3-1.85-6.29-6.29-10.31c-5.46-4.64-13.91-7.42-22.26-7.42c-20.92,0-37,15.25-37,35.25
		S531.73,105.69,552.66,105.69 M482.59,61.58l6.91,19.89h-13.81L482.59,61.58z M512.38,92.91l-21.34-51.84
		c-1.55-3.81-4.43-5.87-8.45-5.87s-6.91,2.06-8.45,5.87L452.8,92.91c-0.62,1.55-0.93,3.09-0.93,4.33c0,4.84,3.71,8.45,8.76,8.45
		c3.81,0,6.7-2.16,8.35-6.39l1.44-3.61h24.32l1.44,3.61c1.65,4.23,4.54,6.39,8.35,6.39c5.05,0,8.76-3.61,8.76-8.45
		C513.31,96,513,94.46,512.38,92.91z M353.28,104.46h32.36c4.64,0,8.14-3.4,8.14-8.04c0-4.54-3.4-7.94-8.14-7.94h-23.6V76.62h14.22
		c4.33,0,7.52-3.19,7.52-7.42s-3.2-7.42-7.52-7.42h-14.22v-9.38h22.37c4.64,0,8.14-3.4,8.14-8.04c0-4.54-3.4-7.94-8.14-7.94h-31.13
		c-5.15,0-8.97,3.81-8.97,8.97v50.09C344.31,100.64,348.13,104.46,353.28,104.46z M324.24,35.19c-3.61,0-6.08,1.75-8.97,6.49
		l-16.8,27l-16.8-27c-2.89-4.74-5.36-6.49-8.97-6.49c-5.15,0-8.86,3.92-8.86,9.17v52.36c0,5.15,3.81,8.97,8.86,8.97
		s8.86-3.81,8.86-8.97V72.91l8.86,14.12c2.47,3.92,4.74,5.46,8.04,5.46c3.3,0,5.57-1.55,8.04-5.46l8.86-14.12v23.81
		c0,5.15,3.81,8.97,8.86,8.97s8.86-3.81,8.86-8.97V44.36C333.1,39.1,329.39,35.19,324.24,35.19z M218.3,51.47
		c10.82,0,18.55,7.94,18.55,18.96c0,11.13-7.63,18.96-18.55,18.96c-11.13,0-18.55-7.63-18.55-18.96
		C199.75,59.21,207.27,51.47,218.3,51.47z M218.2,35.19c-20.51,0-36.59,15.46-36.59,35.25s15.98,35.25,36.59,35.25
		S255,90.23,255,70.44C255,50.75,238.81,35.19,218.2,35.19z M90.51,46.24v52.38c0,3.89-3.17,7.06-7.06,7.06H7.06
		c-3.89,0-7.06-3.17-7.06-7.06V46.24c0-4.03,1.49-7.5,4.42-10.26L40.41,1.94c2.73-2.58,6.98-2.58,9.71,0l35.97,34.05
		C89.02,38.74,90.51,42.22,90.51,46.24z M121.34,105.69c5.05,0,8.86-3.92,8.86-9.17V77.24h24.84v19.27c0,5.26,3.81,9.17,8.86,9.17
		s8.86-3.92,8.86-9.17V44.16c0-5.26-3.71-8.97-8.86-8.97s-8.86,3.71-8.86,8.97v17.11H130.2v-16.9c0-5.26-3.71-9.17-8.86-9.17
		s-8.86,3.92-8.86,9.17v52.15C112.47,101.77,116.29,105.69,121.34,105.69z M427.16,105.69c5.05,0,8.86-3.81,8.86-8.97V52.41h13.3
		c4.64,0,8.14-3.4,8.14-8.04c0-4.54-3.4-7.94-8.14-7.94H405c-4.64,0-8.14,3.4-8.14,7.94c0,4.64,3.5,8.04,8.14,8.04h13.3v44.32
		C418.3,101.88,422.11,105.69,427.16,105.69z"/>
	<g>
		<g>
			<defs>
				<path id="SVGID_1_" d="M48.15,58.3h12.86c0.79,0,1.45-0.66,1.45-1.45V45.8c0-0.8-0.66-1.45-1.45-1.45h-3h-9.86
					c-0.8,0-1.45,0.65-1.45,1.45v8.03v3.02C46.7,57.63,47.36,58.3,48.15,58.3 M29.49,58.3h12.86c0.8,0,1.45-0.66,1.45-1.45V45.8
					c0-0.8-0.65-1.45-1.45-1.45h-3h-9.86c-0.8,0-1.45,0.65-1.45,1.45v8.03v3.02C28.04,57.63,28.69,58.3,29.49,58.3z M48.15,75.14
					h12.86c0.79,0,1.45-0.66,1.45-1.45V62.64c0-0.8-0.66-1.45-1.45-1.45h-3h-9.86c-0.8,0-1.45,0.65-1.45,1.45v8.03v3.02
					C46.7,74.49,47.36,75.14,48.15,75.14z M29.49,75.14h12.86c0.8,0,1.45-0.66,1.45-1.45V62.64c0-0.8-0.65-1.45-1.45-1.45h-3h-9.86
					c-0.8,0-1.45,0.65-1.45,1.45v8.03v3.02C28.04,74.49,28.69,75.14,29.49,75.14z M79.48,59.74c0,5.33-1.22,10.38-3.4,14.88
					c0,0-18.97,37.46-22.01,43.67c-3.91,8.01-13.73,8.01-17.64,0c-3.35-6.87-22.01-43.67-22.01-43.67c-2.18-4.5-3.4-9.55-3.4-14.88
					c0-18.88,15.34-34.27,34.23-34.27S79.48,40.86,79.48,59.74z"/>
			</defs>
			<clipPath id="SVGID_2_">
				<use xlink:href="#SVGID_1_"  overflow="visible"/>
			</clipPath>
			
				<linearGradient id="SVGID_3_" gradientUnits="userSpaceOnUse" x1="62.2968" y1="477.7884" x2="-0.6433" y2="595.2084" gradientTransform="matrix(1 0 0 -1 0 585.49)">
				<stop  offset="0" style="stop-color:#8636FF"/>
				<stop  offset="1" style="stop-color:#B06BFF"/>
			</linearGradient>
			<rect x="11.02" y="25.47" clip-path="url(#SVGID_2_)" fill="url(#SVGID_3_)" width="68.45" height="100.83"/>
		</g>
	</g>
</g>
</svg>
